<svg width="90" height="19" viewBox="0 0 90 19" fill="none" xmlns="http://www.w3.org/2000/svg">
<path fill-rule="evenodd" clip-rule="evenodd" d="M13.9883 6.50391C15.5242 6.50391 17.0128 7.1757 17.7568 8.35156V6.79199H20.541V18H17.7568V16.248C17.0129 17.4719 15.5248 18.288 13.917 18.2881C10.917 18.2881 8.5166 15.8638 8.5166 12.3838C8.51671 9.00002 10.8205 6.50407 13.9883 6.50391ZM14.4688 9.0957C12.6688 9.0957 11.3009 10.5839 11.3008 12.3838C11.3008 14.1837 12.6684 15.6961 14.4922 15.6963C16.2202 15.6963 17.709 14.2558 17.709 12.3838C17.7089 10.464 16.1246 9.09579 14.4688 9.0957Z" fill="#252218"/>
<path d="M35.1768 6.50391C37.1686 6.504 39.4243 7.51209 39.4004 10.0078H36.7363C36.7362 9.23994 36.04 8.75977 35.248 8.75977C34.3843 8.75993 33.7842 9.26411 33.7842 9.95996C33.7842 10.5359 34.3365 10.8716 34.9844 11.0156L36.7842 11.4961C39.304 12.144 39.7607 13.7278 39.7607 14.7598C39.7607 17.0398 37.4802 18.2881 35.2002 18.2881C32.9683 18.288 30.7365 16.9438 30.6885 14.5439H33.3047C33.3047 15.3119 33.9764 16.0322 35.1523 16.0322C36.2563 16.0322 36.9766 15.4798 36.9766 14.7598C36.9764 14.1359 36.4961 13.8482 35.6562 13.6562L34.1689 13.2725C31.6489 12.6005 31 11.2558 31 9.83984C31.0001 8.08792 32.7288 6.50391 35.1768 6.50391Z" fill="#252218"/>
<path fill-rule="evenodd" clip-rule="evenodd" d="M65.4961 6.50391C68.688 6.50391 71.4725 8.83192 71.4727 12.3838C71.4727 15.9358 68.6881 18.2881 65.4961 18.2881C62.3042 18.2879 59.5449 15.9357 59.5449 12.3838C59.545 8.83205 62.3043 6.50407 65.4961 6.50391ZM65.4961 9.0957C63.7683 9.09588 62.3527 10.464 62.3525 12.3838C62.3525 14.3517 63.7682 15.6961 65.4961 15.6963C67.2241 15.6963 68.6641 14.3518 68.6641 12.3838C68.6639 10.4639 67.224 9.0957 65.4961 9.0957Z" fill="#252218"/>
<path d="M9.00098 3.28809H8.2334C6.33743 3.28809 5.78559 4.34395 5.80957 5.71191V6.79199H8.30469V9H5.80957V18H3.02539V9H0.888672V6.79199H3.02539V5.85645C3.02539 2.64045 4.56164 0.696289 7.68164 0.696289H9.00098V3.28809Z" fill="#252218"/>
<path d="M28.9014 6.50391C29.573 6.50398 30.2927 6.64787 30.7246 6.8877L30.1729 9.52832C29.5249 9.19236 28.949 9.12013 28.541 9.12012C26.717 9.12012 25.709 10.944 25.709 14.0879V18H22.9014V6.79199H25.6846V9.19238C26.2846 7.32038 27.5094 6.50391 28.9014 6.50391Z" fill="#252218"/>
<path d="M44.1787 18H41.3945V6.79199H44.1787V18Z" fill="#252218"/>
<path d="M57.8809 18H55.1211V3.28809H52.793C50.897 3.28809 50.3452 4.34395 50.3691 5.71191V6.79199H52.8643V9H50.3691V18H47.585V9H45.4492V6.79199H47.585V5.85645C47.585 2.64045 49.1212 0.696289 52.2412 0.696289H57.8809V18Z" fill="#252218"/>
<path d="M76.8564 14.0156L79.2324 6.79199H81.7041L84.0801 14.0156L86.4561 6.79199H89.4561L85.4248 18H83.0723L80.4561 10.3438L77.9609 18H75.6328L71.4805 6.79199H74.4805L76.8564 14.0156Z" fill="#252218"/>
<path d="M42.7871 1.12793C43.795 1.12803 44.5869 1.8481 44.5869 2.83203C44.5869 3.79194 43.795 4.53603 42.7871 4.53613C41.8031 4.53613 40.9629 3.79201 40.9629 2.83203C40.9629 1.84803 41.8031 1.12793 42.7871 1.12793Z" fill="#252218"/>
</svg>
